<svg xmlns="http://www.w3.org/2000/svg" viewBox="0 0 256 256" width="256" height="256">
  <defs>
    <linearGradient id="bg" x1="0%" y1="0%" x2="100%" y2="100%">
      <stop offset="0%" stop-color="#0054a6"/>
      <stop offset="100%" stop-color="#003d7a"/>
    </linearGradient>
  </defs>
  <!-- Background rounded square -->
  <rect width="256" height="256" rx="48" ry="48" fill="url(#bg)"/>
  <!-- Router body -->
  <rect x="48" y="132" width="160" height="64" rx="12" ry="12" fill="#ffffff"/>
  <!-- LED indicators -->
  <circle cx="80" cy="164" r="8" fill="#4caf50"/>
  <circle cx="108" cy="164" r="8" fill="#4caf50"/>
  <circle cx="136" cy="164" r="8" fill="#698cce"/>
  <circle cx="164" cy="164" r="8" fill="#698cce"/>
  <!-- Signal waves from router -->
  <path d="M128 120 Q128 120 128 120" fill="none" stroke="#ffffff" stroke-width="0"/>
  <!-- Center antenna line -->
  <line x1="128" y1="132" x2="128" y2="80" stroke="#ffffff" stroke-width="6" stroke-linecap="round"/>
  <!-- Signal arcs -->
  <path d="M 98 90 A 38 38 0 0 1 158 90" fill="none" stroke="#ffffff" stroke-width="5" stroke-linecap="round" opacity="0.9"/>
  <path d="M 80 72 A 58 58 0 0 1 176 72" fill="none" stroke="#ffffff" stroke-width="5" stroke-linecap="round" opacity="0.6"/>
  <path d="M 62 54 A 78 78 0 0 1 194 54" fill="none" stroke="#ffffff" stroke-width="5" stroke-linecap="round" opacity="0.35"/>
</svg>
