<?xml version="1.0" encoding="UTF-8"?>
<svg xmlns="http://www.w3.org/2000/svg" viewBox="0 0 512 512" height="512" width="512">
    <path fill="#001A77" d="m333.421 331.002-72.438-75.113 72.438-75.002 26.039 27.072 32.04-33.174-32.04-33.285-32.04 33.285-32.147-33.285-32.04 33.285-32.147-33.285L120.5 256l110.586 114.5 32.147-33.174 32.04 33.174 32.147-33.174 32.04 33.174 32.04-33.174-32.04-33.174zm-128.267 0-72.438-75.113 72.438-74.891 26.039 26.961L184.687 256l46.506 48.152zm64.08 0-72.438-75.113 72.438-75.002 26.039 26.961-46.399 48.041 46.399 48.152z"/>
</svg>
